<?xml version="1.0" encoding="UTF-8"?><svg id="a" xmlns="http://www.w3.org/2000/svg" xmlns:xlink="http://www.w3.org/1999/xlink" viewBox="0 0 677.11 445.91"><defs><style>.g{fill:#dbc108;}.h{fill:#3d327a;}.i{fill:#e6896e;}.j{fill:#d6d2e9;}.k{fill:#fff;}.l{fill:#f6e583;}.m{fill:#e2c932;}.n{fill:#e17a5e;}.o{fill:#d3d6dd;}.p{fill:#e89175;}.q{stroke-width:1.05px;}.q,.r{stroke:#1d1d1b;stroke-miterlimit:3.86;}.q,.r,.s,.t{fill:none;}.u{fill:#e0c628;}.v{fill:#483a80;}.w{fill:#cfcae4;}.x{fill:#655694;}.y{fill:#faeb93;}.a`{fill:#998dba;}.aa{fill:#7f70a6;}.r{stroke-width:1.05px;}.ab{fill:#fff4aa;}.ac{fill:#9385b5;}.ad{fill:#d8be00;}.ae{fill:#bdc3cd;}.af{fill:#e9ebee;}.ag{fill:#372e77;}.ah{fill:#bbb3d4;}.ai{fill:#c9c2df;}.aj{fill:#c2bada;}.ak{fill:#c7251f;}.al{fill:#ea997d;}.am{fill:#ce3c2c;}.an{fill:#da6449;}.ao{fill:#dc6b50;}.ap{fill:#b4abcf;}.aq{fill:#edd861;}.ar{fill:#5f508f;}.as{fill:#a79cc5;}.at{fill:#c51a1b;}.au{fill:#dadde3;}.av{fill:#e7cf45;}.aw{fill:#312a74;}.ax{fill:#f8e88b;}.ay{fill:#f1f1f4;}.b`{clip-path:url(#b);}.ba{fill:#f4b69e;}.bb{clip-path:url(#c);}.bc{fill:#f4e17a;}.bd{fill:#ada3ca;}.be{clip-path:url(#e);}.bf{fill:#ebd558;}.bg{fill:#c92d23;}.bh{fill:#dddaee;}.bi{fill:#7869a1;}.bj{fill:#cc3528;}.bk{fill:#a094bf;}.bl{fill:#fff7b2;}.bm{clip-path:url(#d);}.bn{fill:#e9d24f;}.bo{fill:#d34c36;}.bp{fill:#d5543c;}.s{clip-rule:evenodd;}.bq{fill:#ccd0d7;}.br{fill:#f2de72;}.bs{fill:#f9c5af;}.bt{fill:#e2e4e9;}.bu{fill:#72639c;}.bv{fill:#f8f8fa;}.bw{fill:#594a8b;}.bx{fill:#c5cad2;}.by{fill:#f2af96;}.c`{fill:#8c7eb0;}.ca{fill:#eda085;}.cb{fill:#fff1a3;}.cc{clip-path:url(#f);}.cd{fill:#fdee9b;}.ce{fill:#b5bdc7;}.cf{fill:#ddc41b;}.cg{fill:#e4cc3c;}.ch{fill:#e38266;}.ci{fill:#de7357;}.cj{fill:#534487;}.ck{fill:#efa78d;}.cl{fill:#d04431;}.cm{fill:#4e3f83;}.cn{fill:#d75c43;}.co{fill:#8577ab;}.cp{fill:#efdb69;}.cq{fill:#42367d;}.cr{fill:#f7bda7;}.cs{fill:#6b5c98;}</style><clipPath id="b"><polygon class="s" points="61.09 407.84 442.58 339.65 613.09 49.14 333.86 99.06 61.09 407.84 61.09 407.84 61.09 407.84"/></clipPath><clipPath id="c"><rect class="t" x="59.53" width="554.81" height="408.81"/></clipPath><clipPath id="d"><path class="s" d="M508.23,165.65h76.23v76.23h-76.23v-76.23h0Zm-82.36,51.94l15.25-58.39,61.14,15.25-15.25,58.39-61.14-15.25h0Zm-76.97-24.29l30.49-40.55,46.04,30.49-30.49,40.55-46.04-30.49h0Zm-79.9-3.76l45.74-22.72,30.95,45.74-45.74,22.72-30.95-45.74h0Zm-76.97-59.47l60.98-4.88,15.86,60.98-60.98,4.88-15.86-60.98h0Zm-109.22,16.76l76.23,12.96,.76,76.23-76.23-12.96-.76-76.23h0Z"/></clipPath><clipPath id="e"><path class="s" d="M508.23,80.62h76.23v76.23h-76.23V80.62h0Zm-13.13,46.33l-54.43,15.25-15.25-64.79,54.43-15.25,15.25,64.8h0Zm-72.24-43.1l-32.63,30.49-30.49-53.36,32.63-30.49,30.49,53.36h0Zm-85.44-29.9l-10.82,45.74-45.74-41.93,10.82-45.74,45.74,41.93h0Zm-94.23-16.71l10.98,60.98-60.98-30.49-10.98-60.98,60.98,30.49h0ZM59.53,1.47l76.23,19.06,32.78,76.23-76.23-19.06L59.53,1.47h0Z"/></clipPath><clipPath id="f"><path class="s" d="M508.23,250.69h76.23v76.23h-76.23v-76.23h0Zm-82.79,67.44l15.25-64.04,51.38,15.25-15.25,64.04-51.38-15.25h0Zm-74.47,17.59l30.49-51.84,26.53,30.49-30.49,51.84-26.53-30.49h0Zm-77.4-11.72l45.74-39.65,1.68,45.74-45.74,39.65-1.68-45.74h0Zm-67.14-41.04l60.98-27.45-23.17,60.98-60.98,27.45,23.17-60.98h0Zm-94.99,23.46l76.23-15.26-48.03,76.23-76.23,15.26,48.03-76.23h0Z"/></clipPath></defs><g class="b`"><rect class="ce" x="584.99" y="24.11" width="57.23" height="261.24" transform="translate(-18.88 175.13) rotate(-16)"/><rect class="ae" x="529.98" y="39.88" width="57.23" height="261.24" transform="translate(-25.36 160.57) rotate(-16)"/><rect class="bx" x="474.97" y="55.65" width="57.23" height="261.24" transform="translate(-31.84 146.02) rotate(-16)"/><rect class="bq" x="419.96" y="71.43" width="57.23" height="261.24" transform="translate(-38.32 131.47) rotate(-16)"/><rect class="o" x="364.95" y="87.2" width="57.23" height="261.24" transform="translate(-44.79 116.92) rotate(-16)"/><rect class="au" x="309.94" y="102.98" width="57.23" height="261.24" transform="translate(-51.27 102.37) rotate(-16)"/><rect class="bt" x="254.93" y="118.75" width="57.23" height="261.24" transform="translate(-57.75 87.82) rotate(-16)"/><rect class="af" x="199.92" y="134.52" width="57.23" height="261.24" transform="translate(-64.23 73.26) rotate(-16)"/><rect class="ay" x="144.91" y="150.3" width="57.23" height="261.24" transform="translate(-70.71 58.71) rotate(-16)"/><rect class="bv" x="89.9" y="166.07" width="57.23" height="261.24" transform="translate(-77.19 44.16) rotate(-16)"/><rect class="k" x="34.9" y="181.84" width="57.23" height="261.24" transform="translate(-83.67 29.61) rotate(-16)"/></g><g class="bb"><polygon class="r" points="61.09 407.84 442.58 339.65 613.09 49.14 333.86 99.06 61.09 407.84 61.09 407.84 61.09 407.84"/></g><path class="q" d="M108.78,399.32L368.76,92.82M156.46,390.79L403.67,86.58M204.15,382.27L438.57,80.34M251.84,373.75L473.48,74.1m-173.95,291.12L508.38,67.86m-161.17,288.84L543.28,61.62m-148.39,286.55L578.19,55.38M100.06,363.73l366.88-65.58m-327.92,21.47l352.27-62.97m-313.31,18.86l337.67-60.36m-298.7,16.25l323.06-57.75m-284.09,13.64l308.45-55.14m-269.48,11.02l293.84-52.52"/><polygon class="ce" points="513.04 163.55 583.51 163.55 583.51 239.48 513.04 239.48 513.04 163.55 513.04 163.55"/><polygon class="ce" points="436.9 215.28 451 157.12 507.52 172.31 493.42 230.47 436.9 215.28 436.9 215.28"/><polygon class="ce" points="365.75 191.09 393.94 150.69 436.5 181.07 408.31 221.46 365.75 191.09 365.75 191.09"/><polygon class="ce" points="291.88 187.34 334.16 164.71 362.78 210.27 320.49 232.9 291.88 187.34 291.88 187.34"/><polygon class="ce" points="220.73 128.1 277.1 123.24 291.76 183.99 235.38 188.85 220.73 128.1 220.73 128.1"/><polygon class="ce" points="119.75 144.8 190.23 157.7 190.93 233.64 120.46 220.73 119.75 144.8 119.75 144.8"/><polygon class="ce" points="513.04 78.84 583.51 78.84 583.51 154.77 513.04 154.77 513.04 78.84 513.04 78.84"/><polygon class="ce" points="500.9 124.98 450.58 140.17 436.49 75.63 486.81 60.44 500.9 124.98 500.9 124.98"/><polygon class="ce" points="434.12 82.06 403.95 112.43 375.76 59.28 405.93 28.9 434.12 82.06 434.12 82.06"/><polygon class="ce" points="355.13 52.27 345.13 97.83 302.84 56.07 312.85 10.51 355.13 52.27 355.13 52.27"/><polygon class="ce" points="268.02 35.63 278.17 96.37 221.79 66 211.64 5.25 268.02 35.63 268.02 35.63"/><polygon class="ce" points="98.23 0 168.71 18.98 199.01 94.91 128.54 75.93 98.23 0 98.23 0"/><polygon class="ce" points="513.04 248.54 583.51 248.54 583.51 324.47 513.04 324.47 513.04 248.54 513.04 248.54"/><polygon class="ce" points="436.5 315.42 450.6 251.64 498.09 266.83 484 330.61 436.5 315.42 436.5 315.42"/><polygon class="ce" points="367.65 332.95 395.84 281.31 420.37 311.68 392.18 363.32 367.65 332.95 367.65 332.95"/><polygon class="ce" points="296.1 321.27 338.38 281.78 339.93 327.34 297.65 366.83 296.1 321.27 296.1 321.27"/><polygon class="ce" points="234.03 280.39 290.41 253.04 268.98 313.79 212.6 341.13 234.03 280.39 234.03 280.39"/><polygon class="ce" points="146.21 303.75 216.68 288.55 172.28 364.49 101.81 379.69 146.21 303.75 146.21 303.75"/><g class="bm"><rect class="bl" x="82.81" y="125.19" width="25.08" height="116.69"/><rect class="ab" x="107.89" y="125.19" width="25.08" height="116.69"/><rect class="cb" x="132.98" y="125.19" width="25.08" height="116.69"/><rect class="cd" x="158.06" y="125.19" width="25.08" height="116.69"/><rect class="y" x="183.14" y="125.19" width="25.08" height="116.69"/><rect class="ax" x="208.22" y="125.19" width="25.08" height="116.69"/><rect class="l" x="233.3" y="125.19" width="25.08" height="116.69"/><rect class="bc" x="258.39" y="125.19" width="25.08" height="116.69"/><rect class="br" x="283.47" y="125.19" width="25.08" height="116.69"/><rect class="cp" x="308.55" y="125.19" width="25.08" height="116.69"/><rect class="aq" x="333.63" y="125.19" width="25.08" height="116.69"/><rect class="bf" x="358.72" y="125.19" width="25.08" height="116.69"/><rect class="bn" x="383.8" y="125.19" width="25.08" height="116.69"/><rect class="av" x="408.88" y="125.19" width="25.08" height="116.69"/><rect class="cg" x="433.96" y="125.19" width="25.08" height="116.69"/><rect class="m" x="459.04" y="125.19" width="25.08" height="116.69"/><rect class="u" x="484.13" y="125.19" width="25.08" height="116.69"/><rect class="cf" x="509.21" y="125.19" width="25.08" height="116.69"/><rect class="g" x="534.29" y="125.19" width="25.08" height="116.69"/><rect class="ad" x="559.37" y="125.19" width="25.08" height="116.69"/></g><g class="be"><rect class="bs" x="59.53" y="1.47" width="22.82" height="155.38"/><rect class="cr" x="82.35" y="1.47" width="22.82" height="155.38"/><rect class="ba" x="105.18" y="1.47" width="22.82" height="155.38"/><rect class="by" x="128" y="1.47" width="22.82" height="155.38"/><rect class="ck" x="150.82" y="1.47" width="22.82" height="155.38"/><rect class="ca" x="173.65" y="1.47" width="22.82" height="155.38"/><rect class="al" x="196.47" y="1.47" width="22.82" height="155.38"/><rect class="p" x="219.29" y="1.47" width="22.82" height="155.38"/><rect class="i" x="242.11" y="1.47" width="22.82" height="155.38"/><rect class="ch" x="264.94" y="1.47" width="22.82" height="155.38"/><rect class="n" x="287.76" y="1.47" width="22.82" height="155.38"/><rect class="ci" x="310.58" y="1.47" width="22.82" height="155.38"/><rect class="ao" x="333.4" y="1.47" width="22.82" height="155.38"/><rect class="an" x="356.23" y="1.47" width="22.82" height="155.38"/><rect class="cn" x="379.05" y="1.47" width="22.82" height="155.38"/><rect class="bp" x="401.87" y="1.47" width="22.82" height="155.38"/><rect class="bo" x="424.7" y="1.47" width="22.82" height="155.38"/><rect class="cl" x="447.52" y="1.47" width="22.82" height="155.38"/><rect class="am" x="470.34" y="1.47" width="22.82" height="155.38"/><rect class="bj" x="493.16" y="1.47" width="22.82" height="155.38"/><rect class="bg" x="515.99" y="1.47" width="22.82" height="155.38"/><rect class="ak" x="538.81" y="1.47" width="22.82" height="155.38"/><rect class="at" x="561.63" y="1.47" width="22.82" height="155.38"/></g><g class="cc"><rect class="bh" x="63.4" y="250.69" width="18.61" height="131.95"/><rect class="j" x="82.01" y="250.69" width="18.61" height="131.95"/><rect class="w" x="100.62" y="250.69" width="18.61" height="131.95"/><rect class="ai" x="119.23" y="250.69" width="18.61" height="131.95"/><rect class="aj" x="137.84" y="250.69" width="18.61" height="131.95"/><rect class="ah" x="156.45" y="250.69" width="18.61" height="131.95"/><rect class="ap" x="175.06" y="250.69" width="18.61" height="131.95"/><rect class="bd" x="193.66" y="250.69" width="18.61" height="131.95"/><rect class="as" x="212.27" y="250.69" width="18.61" height="131.95"/><rect class="bk" x="230.88" y="250.69" width="18.61" height="131.95"/><rect class="a`" x="249.49" y="250.69" width="18.61" height="131.95"/><rect class="ac" x="268.1" y="250.69" width="18.61" height="131.95"/><rect class="c`" x="286.71" y="250.69" width="18.61" height="131.95"/><rect class="co" x="305.32" y="250.69" width="18.61" height="131.95"/><rect class="aa" x="323.93" y="250.69" width="18.61" height="131.95"/><rect class="bi" x="342.54" y="250.69" width="18.61" height="131.95"/><rect class="bu" x="361.15" y="250.69" width="18.61" height="131.95"/><rect class="cs" x="379.76" y="250.69" width="18.61" height="131.95"/><rect class="x" x="398.36" y="250.69" width="18.61" height="131.95"/><rect class="ar" x="416.97" y="250.69" width="18.61" height="131.95"/><rect class="bw" x="435.58" y="250.69" width="18.61" height="131.95"/><rect class="cj" x="454.19" y="250.69" width="18.61" height="131.95"/><rect class="cm" x="472.8" y="250.69" width="18.61" height="131.95"/><rect class="v" x="491.41" y="250.69" width="18.61" height="131.95"/><rect class="cq" x="510.02" y="250.69" width="18.61" height="131.95"/><rect class="h" x="528.63" y="250.69" width="18.61" height="131.95"/><rect class="ag" x="547.24" y="250.69" width="18.61" height="131.95"/><rect class="aw" x="565.85" y="250.69" width="18.61" height="131.95"/></g></svg>