<?xml version="1.0" encoding="UTF-8"?><svg id="a" xmlns="http://www.w3.org/2000/svg" viewBox="0 0 571.03 427.1"><defs><style>.b{fill:#fff;fill-rule:evenodd;}</style></defs><path class="b" d="M468.06,103.17h76.23v76.23h-76.23V103.17h0Zm-13.13,46.33l-54.43,15.25-15.25-64.79,54.43-15.25,15.25,64.8h0Zm-72.24-43.1l-32.63,30.49-30.49-53.36,32.63-30.49,30.49,53.36h0Zm-85.44-29.9l-10.82,45.74-45.74-41.93,10.82-45.74,45.74,41.93h0Zm-94.23-16.71l10.98,60.98-60.98-30.49-10.98-60.98,60.98,30.49h0ZM19.37,24.02l76.23,19.06,32.78,76.23-76.23-19.06L19.37,24.02h0Z"/><path class="b" d="M468.06,186.55h76.23v76.23h-76.23v-76.23h0Zm-82.36,51.94l15.25-58.39,61.14,15.25-15.25,58.39-61.14-15.25h0Zm-76.97-24.29l30.49-40.55,46.04,30.49-30.49,40.55-46.04-30.49h0Zm-79.9-3.76l45.74-22.72,30.95,45.74-45.74,22.72-30.95-45.74h0Zm-76.97-59.47l60.98-4.88,15.86,60.98-60.98,4.88-15.86-60.98h0Zm-109.22,16.76l76.23,12.96,.76,76.23-76.23-12.96-.76-76.23h0Z"/><path class="b" d="M466.86,270.5h76.23v76.23h-76.23v-76.23h0Zm-82.79,67.44l15.25-64.04,51.38,15.25-15.25,64.04-51.38-15.25h0Zm-74.47,17.59l30.49-51.84,26.53,30.49-30.49,51.84-26.53-30.49h0Zm-77.4-11.72l45.74-39.65,1.68,45.74-45.74,39.65-1.68-45.74h0Zm-67.14-41.04l60.98-27.45-23.17,60.98-60.98,27.45,23.17-60.98h0Zm-94.99,23.46l76.23-15.26-48.03,76.23-76.23,15.26,48.03-76.23h0Z"/></svg>