<?xml version="1.0" encoding="UTF-8"?>
<svg id="Lager_2" data-name="Lager 2" xmlns="http://www.w3.org/2000/svg" viewBox="0 0 571.03 427.1">
  <defs>
    <style>
      .cls-1 {
        fill: #fff;
        fill-rule: evenodd;
        stroke-width: 0px;
      }
    </style>
  </defs>
  <path class="cls-1" d="M468.06,103.17h76.23v76.23h-76.23v-76.23h0ZM454.93,149.49l-54.43,15.25-15.25-64.79,54.43-15.25,15.25,64.8h0ZM382.69,106.4l-32.63,30.49-30.49-53.36,32.63-30.49,30.49,53.36h0ZM297.25,76.5l-10.82,45.74-45.74-41.93,10.82-45.74,45.74,41.93h0ZM203.02,59.79l10.98,60.98-60.98-30.49-10.98-60.98,60.98,30.49h0ZM19.37,24.02l76.23,19.06,32.78,76.23-76.23-19.06L19.37,24.02h0Z"/>
  <path class="cls-1" d="M468.06,186.55h76.23v76.23h-76.23v-76.23h0ZM385.7,238.49l15.25-58.39,61.14,15.25-15.25,58.39-61.14-15.25h0ZM308.73,214.2l30.49-40.55,46.04,30.49-30.49,40.55-46.04-30.49h0ZM228.83,210.44l45.74-22.72,30.95,45.74-45.74,22.72-30.95-45.74h0ZM151.86,150.97l60.98-4.88,15.86,60.98-60.98,4.88-15.86-60.98h0ZM42.65,167.72l76.23,12.96.76,76.23-76.23-12.96-.76-76.23h0Z"/>
  <path class="cls-1" d="M466.86,270.5h76.23v76.23h-76.23v-76.23h0ZM384.07,337.94l15.25-64.04,51.38,15.25-15.25,64.04-51.38-15.25h0ZM309.6,355.54l30.49-51.84,26.53,30.49-30.49,51.84-26.53-30.49h0ZM232.19,343.81l45.74-39.65,1.68,45.74-45.74,39.65-1.68-45.74h0ZM165.05,302.77l60.98-27.45-23.17,60.98-60.98,27.45,23.17-60.98h0ZM70.06,326.22l76.23-15.26-48.03,76.23-76.23,15.26,48.03-76.23h0Z"/>
</svg>